<svg width="203" height="42" viewBox="0 0 203 42" fill="none" xmlns="http://www.w3.org/2000/svg">
<mask id="mask0_2_3" style="mask-type:luminance" maskUnits="userSpaceOnUse" x="0" y="0" width="45" height="42">
<path d="M0.5 0.5H44.5V41.5H0.5V0.5Z" fill="white" stroke="white"/>
</mask>
<g mask="url(#mask0_2_3)">
<path d="M22.2358 33.0901L22.5 33.2546L22.7642 33.0901L36.3191 24.6525V32.8089L22.5 41.4096L8.68218 32.809V24.6526L22.2358 33.0901ZM44.5 14.2778V32.1657H41.4096V16.5426V15.6425L40.6454 16.1181L22.5 27.4111L0.946428 14L22.5 0.588889L44.5 14.2778Z" fill="#ED5252" stroke="white"/>
</g>
<path d="M51.3594 31.5V10.4091H57.0852V26.8864H65.6122V31.5H51.3594ZM77.0387 31.7884C75.3498 31.7884 73.8943 31.4657 72.6722 30.8203C71.457 30.1681 70.5199 29.2344 69.8608 28.0192C69.2086 26.7971 68.8824 25.3348 68.8824 23.6321C68.8824 21.9981 69.212 20.5701 69.8711 19.348C70.5302 18.1259 71.4604 17.1751 72.6619 16.4954C73.8634 15.8157 75.2811 15.4759 76.9151 15.4759C78.1097 15.4759 79.191 15.6612 80.1591 16.032C81.1271 16.4027 81.9544 16.9416 82.641 17.6488C83.3275 18.3491 83.8562 19.2004 84.2269 20.2028C84.5976 21.2051 84.783 22.3345 84.783 23.5909V24.9091H70.6537V21.7784H79.5515C79.5446 21.3253 79.4279 20.9271 79.2013 20.5838C78.9816 20.2337 78.683 19.9625 78.3054 19.7702C77.9346 19.5711 77.5124 19.4716 77.0387 19.4716C76.5787 19.4716 76.1565 19.5711 75.772 19.7702C75.3875 19.9625 75.0786 20.2302 74.8452 20.5735C74.6186 20.9168 74.4984 21.3184 74.4847 21.7784V25.1562C74.4847 25.6643 74.5911 26.1174 74.804 26.5156C75.0168 26.9138 75.3223 27.2262 75.7205 27.4528C76.1187 27.6793 76.5993 27.7926 77.1623 27.7926C77.5536 27.7926 77.9106 27.7377 78.2333 27.6278C78.5628 27.518 78.8443 27.3601 79.0778 27.1541C79.3112 26.9413 79.4828 26.6873 79.5927 26.392H84.783C84.6045 27.4905 84.1823 28.4448 83.5163 29.255C82.8504 30.0582 81.9681 30.683 80.8697 31.1293C79.778 31.5687 78.501 31.7884 77.0387 31.7884ZM92.9604 31.7472C91.9511 31.7472 91.0586 31.5824 90.2828 31.2528C89.5139 30.9164 88.9097 30.4084 88.4703 29.7287C88.0309 29.049 87.8112 28.1839 87.8112 27.1335C87.8112 26.2685 87.9588 25.5304 88.254 24.9194C88.5493 24.3015 88.9612 23.7969 89.4898 23.4055C90.0185 23.0142 90.633 22.7156 91.3332 22.5096C92.0404 22.3036 92.8025 22.1697 93.6195 22.108C94.5051 22.0393 95.2157 21.9569 95.7512 21.8608C96.2936 21.7578 96.6849 21.6171 96.9252 21.4386C97.1655 21.2532 97.2857 21.0095 97.2857 20.7074V20.6662C97.2857 20.2543 97.1277 19.9384 96.8119 19.7188C96.4961 19.4991 96.0911 19.3892 95.5967 19.3892C95.0544 19.3892 94.6115 19.5094 94.2683 19.7496C93.9318 19.9831 93.7293 20.3435 93.6607 20.831H88.4291C88.4978 19.8698 88.8033 18.9841 89.3457 18.174C89.8949 17.357 90.6947 16.7048 91.7452 16.2173C92.7956 15.723 94.1069 15.4759 95.6791 15.4759C96.8119 15.4759 97.828 15.6097 98.7274 15.8775C99.6268 16.1384 100.392 16.5057 101.024 16.9794C101.656 17.4463 102.136 17.9955 102.466 18.6271C102.802 19.2519 102.97 19.9316 102.97 20.6662V31.5H97.6564V29.2756H97.5328C97.217 29.866 96.8325 30.3432 96.3794 30.707C95.9331 31.0709 95.4217 31.3352 94.845 31.5C94.2751 31.6648 93.6469 31.7472 92.9604 31.7472ZM94.8141 28.1634C95.2466 28.1634 95.6517 28.0741 96.0293 27.8956C96.4137 27.7171 96.7261 27.4596 96.9664 27.1232C97.2067 26.7868 97.3268 26.3783 97.3268 25.8977V24.5795C97.1758 24.6413 97.0145 24.6997 96.8428 24.7546C96.6781 24.8095 96.4996 24.861 96.3073 24.9091C96.1219 24.9571 95.9228 25.0018 95.71 25.043C95.5041 25.0842 95.2878 25.1219 95.0612 25.1562C94.6218 25.2249 94.2614 25.3382 93.9799 25.4961C93.7053 25.6471 93.4993 25.8359 93.362 26.0625C93.2316 26.2822 93.1663 26.5294 93.1663 26.804C93.1663 27.2434 93.3208 27.5798 93.6298 27.8132C93.9387 28.0466 94.3335 28.1634 94.8141 28.1634ZM107.136 31.5V15.6818H112.656V18.6889H112.821C113.109 17.5767 113.566 16.7631 114.191 16.2482C114.822 15.7333 115.56 15.4759 116.405 15.4759C116.652 15.4759 116.896 15.4964 117.136 15.5376C117.383 15.572 117.62 15.6235 117.847 15.6921V20.5426C117.565 20.4465 117.219 20.3744 116.807 20.3263C116.395 20.2783 116.041 20.2543 115.746 20.2543C115.19 20.2543 114.689 20.3813 114.242 20.6353C113.803 20.8825 113.456 21.2326 113.202 21.6857C112.948 22.132 112.821 22.6572 112.821 23.2614V31.5H107.136ZM126.845 22.6023V31.5H121.161V15.6818H126.557V18.6889H126.722C127.065 17.6866 127.669 16.9004 128.534 16.3306C129.406 15.7608 130.422 15.4759 131.583 15.4759C132.702 15.4759 133.673 15.7333 134.497 16.2482C135.328 16.7563 135.97 17.4566 136.423 18.3491C136.883 19.2416 137.109 20.2611 137.102 21.4077V31.5H131.418V22.6023C131.425 21.8196 131.226 21.2051 130.821 20.7589C130.422 20.3126 129.866 20.0895 129.152 20.0895C128.685 20.0895 128.277 20.1925 127.927 20.3984C127.583 20.5975 127.319 20.8859 127.134 21.2635C126.948 21.6342 126.852 22.0805 126.845 22.6023ZM141.276 31.5V10.4091H147.002V18.6477H154.582V10.4091H160.308V31.5H154.582V23.2614H147.002V31.5H141.276ZM174.816 24.5795V15.6818H180.501V31.5H175.104V28.4929H174.939C174.596 29.5021 173.995 30.2917 173.137 30.8615C172.279 31.4245 171.26 31.706 170.079 31.706C168.973 31.706 168.005 31.4519 167.175 30.9439C166.351 30.4358 165.709 29.7356 165.249 28.843C164.796 27.9505 164.566 26.9276 164.559 25.7741V15.6818H170.243V24.5795C170.25 25.3622 170.449 25.9767 170.841 26.4229C171.239 26.8692 171.795 27.0923 172.509 27.0923C172.983 27.0923 173.391 26.9928 173.735 26.7937C174.085 26.5877 174.352 26.2994 174.538 25.9286C174.73 25.551 174.823 25.1013 174.816 24.5795ZM184.759 31.5V10.4091H190.444V18.4418H190.526C190.732 17.9062 191.034 17.4154 191.433 16.9691C191.831 16.516 192.325 16.1555 192.916 15.8878C193.506 15.6132 194.193 15.4759 194.975 15.4759C196.019 15.4759 197.011 15.7539 197.951 16.31C198.899 16.8661 199.668 17.7415 200.258 18.9361C200.856 20.1307 201.154 21.6823 201.154 23.5909C201.154 25.4171 200.869 26.931 200.299 28.1325C199.737 29.3339 198.981 30.2299 198.034 30.8203C197.093 31.4107 196.06 31.706 194.934 31.706C194.193 31.706 193.53 31.5858 192.947 31.3455C192.37 31.0984 191.875 30.7654 191.464 30.3466C191.058 29.9209 190.746 29.4403 190.526 28.9048H190.403V31.5H184.759ZM190.32 23.5909C190.32 24.3598 190.42 25.0258 190.619 25.5888C190.825 26.1449 191.113 26.5774 191.484 26.8864C191.862 27.1884 192.311 27.3395 192.833 27.3395C193.355 27.3395 193.798 27.1919 194.162 26.8967C194.532 26.5946 194.814 26.1655 195.006 25.6094C195.205 25.0464 195.305 24.3736 195.305 23.5909C195.305 22.8082 195.205 22.1388 195.006 21.5827C194.814 21.0198 194.532 20.5907 194.162 20.2955C193.798 19.9934 193.355 19.8423 192.833 19.8423C192.311 19.8423 191.862 19.9934 191.484 20.2955C191.113 20.5907 190.825 21.0198 190.619 21.5827C190.42 22.1388 190.32 22.8082 190.32 23.5909Z" fill="#ED5252"/>
</svg>
